<svg xmlns="http://www.w3.org/2000/svg" xml:space="preserve" width="697.41309" height="700" viewBox="0 0 697.41309 699.99999"><path d="M511.291 135.384s-2.634-2.773-2.975-3.102c.374-.346 6.302-6.006 6.302-6.006l-3.382-3.526s-5.917 5.682-6.275 6.018c-.307-.336-2.843-2.986-3.156-3.321.357-.32 6.286-6 6.286-6s-4.125-4.335-4.471-4.674c.313-.303 2.623-2.503 2.953-2.806.346.37 21.452 22.47 21.804 22.85-.33.296-2.617 2.492-2.942 2.799-.352-.364-7.65-8.023-7.65-8.023s-5.95 5.664-6.29 5.993c-.088-.093-.204-.202-.204-.202" style="fill:#fff;fill-opacity:1;fill-rule:nonzero;stroke:none;stroke-width:.549923" transform="matrix(2.25701 0 0 -2.25701 -570.944 868.572)"/><path d="M520.216 138.716c-.38.341-12.587 12.016-12.967 12.373-.115-.11-.214-.232-.214-.232s-18.335-19.18-18.687-19.565c.308-.303 2.607-2.481 2.92-2.782.38.363 15.745 16.474 15.745 16.474l10.025-9.579 3.178 3.31M296.068 129.367c-3.2-2.986-3.113-8.32.225-11.89 3.338-3.585 8.667-4.058 11.857-1.061 3.233 2.996 3.118 8.343-.226 11.911-3.327 3.575-8.656 4.037-11.856 1.04zm2.942-3.07c1.721 1.6 4.52 1.364 6.297-.515 1.748-1.893 1.792-4.735.071-6.314-1.683-1.594-4.531-1.374-6.291.511-1.76 1.893-1.782 4.73-.077 6.318M325.39 132.733s-2.491 2.672-2.794 3.001c-.34-.296-3.684-3.42-3.684-3.42s-3.245 3.487-3.553 3.822c-.302-.29-2.535-2.376-2.837-2.666.313-.32 3.547-3.8 3.547-3.8l-4.823-4.498c.291-.314 2.705-2.905 3.03-3.225.352.331 10.976 10.236 11.328 10.571-.104.106-.214.215-.214.215M311.944 147.271s-16.168-.652-16.663-.674c.022-.44.248-3.989.303-4.417.473.033 11.933.67 11.933.67s-1.408-10.755-1.479-11.24c.429-.05 3.948-.533 4.377-.6.055.496 1.804 15.718 1.87 16.285-.16 0-.34-.023-.34-.023M444.321 78.802l4.372.741-4.9 28.828c-.148-.01-.296-.045-.296-.045s-3.64-.62-4.086-.698c.077-.484 1.528-8.86 1.528-8.86l-2.59-.44s-1.43 8.376-1.501 8.872l-4.405-.765 3.124-18.312c-3.498-.59-13.886-2.359-13.886-2.359l-2.397 14.09s9.766 1.664 10.267 1.752l-.655 3.641h-.05l-14.545-2.485c.88-5.196 3.64-21.2 3.707-21.619l18.202 3.113 1.139-6.67 4.415.754c-.066.494-2.75 16.124-2.75 16.124l2.569.427s2.662-15.606 2.739-16.09M355.262 101.113l-1.353.708 5.444 10.202-.27.13-23.272 12.434-1.881-3.514c.429-.23 19.588-10.446 19.588-10.446s-2.188-4.082-3.585-6.694L328.6 115.355l-1.87-3.504c.43-.226 8.381-4.492 8.381-4.492s-2.238-4.174-2.441-4.597l4.009-2.125c.203.398 2.447 4.589 2.447 4.589l3.558-1.892s-2.227-4.202-2.442-4.598l3.998-2.15c.226.413 2.47 4.608 2.47 4.608s6.521-3.493 6.95-3.712l1.859 3.498c-.121.055-.258.133-.258.133zm-24.093 5.284-3.954 2.09-4.9-9.18 24.032-12.834 1.865 3.497c-.451.237-20.062 10.724-20.062 10.724s2.794 5.269 3.02 5.703M374.217 88.563a6.653 6.653 0 0 0-.291.054s-3.674.584-4.103.644l-1.655-10.29 27.1-4.283.622 3.931c-.473.078-22.673 3.575-22.673 3.575s.923 5.896 1 6.369zm24.598 9.948s.726 4.586.803 5.048c-.126.022-.28.043-.28.043s-3.685.578-4.136.655l-1.875-11.943-4.493.709 1.826 11.417c-.16.032-.297.032-.297.032s-18.037 2.853-18.521 2.943l-.622-3.933c.484-.071 14.38-2.277 14.38-2.277s-.824-5.14-1.182-7.485l-4.454.71s.6 3.729.654 4.18c-.11.005-.269.028-.269.028s-3.767.603-4.207.68c-.066-.455-.66-4.18-.66-4.18s-6.357 1.008-6.819 1.075l-.632-3.92 24.68-3.913-.72-4.575 4.405-.698c.088.472 1.803 11.505 1.803 11.505s4.086-.644 4.543-.722l.605 3.902c-.451.064-4.532.719-4.532.719M478.862 125.644s-3.222-1.776-3.63-1.991c.248-.417 8.123-14.64 8.348-15.067.363.215 3.481 1.925 3.855 2.14l-4.03 7.28s3.536 1.952 3.942 2.156a452.14 452.14 0 0 0-1.891 3.41c-.396-.227-3.938-2.173-3.938-2.173s-2.194 3.985-2.42 4.404c-.126-.088-.236-.159-.236-.159M488.123 108.777S464.47 95.695 464.02 95.458c.214-.384 1.71-3.07 1.913-3.447.44.247 20.48 11.323 20.48 11.323l2.903-5.242c.374.204 3.476 1.92 3.877 2.14-.236.419-4.575 8.266-4.812 8.689l-.258-.144M471.493 120.98l-7.193-3.986-1.314 2.364-3.927-2.16 1.298-2.372-7.27-4.04 1.804-3.285 2.629 1.458a8.191 8.191 0 0 1 .99-4.586c2.265-4.103 7.616-5.488 11.966-3.08 4.328 2.382 6.016 7.666 3.74 11.78a7.96 7.96 0 0 1-3.355 3.255l2.452 1.364zm-3.024-15.852c-2.063-1.15-4.642-.476-5.736 1.484-1.089 1.974-.27 4.487 1.815 5.647 2.05 1.139 4.63.473 5.702-1.49 1.084-1.968.303-4.493-1.781-5.641M558.991 217.679l-3.387 2.117c3.569 1.633 3.684 5.186 3.684 5.186.143 2.771-1.49 4.778-3.844 4.756-3.156-.01-4.306-2.793-5.636-5.994-1.43-3.437-3.624-7.055-8.013-7.314-5.317-.308-8.903 4.383-8.628 10.828.258 6.286 4.62 9.294 4.62 9.294l3.975-1.837s-5.598-1.848-5.95-8.606c-.17-2.997 2.018-5.318 4.96-5.307 3.124.033 4.251 2.7 5.544 5.824 1.44 3.48 3.08 7.44 8.089 7.473 4.883.033 7.825-3.844 7.54-9.87 0 0-.089-3.845-2.954-6.55M265.586 174.048l3.965-.43c-2.492-3.028-1.056-6.268-1.056-6.268 1.1-2.558 3.437-3.658 5.576-2.612 2.816 1.407 2.623 4.393 2.425 7.854-.214 3.733.187 7.945 4.01 10.107 4.64 2.605 9.925-.056 12.499-5.972 2.502-5.77-.072-10.367-.072-10.367l-4.405-.1s4.23 4.115 1.59 10.358c-1.15 2.76-4.136 3.898-6.775 2.588-2.816-1.386-2.645-4.284-2.431-7.66.225-3.766.462-8.045-4.014-10.256-4.372-2.16-8.722.021-11.087 5.564 0 0-1.622 3.493-.225 7.194M261.417 273.314l-.286-.27c-.495-.51-3.398-3.54-4.663-9.535-1.925-9.195 2.354-16.025 10.828-17.795 8.623-1.81 14.908 2.48 16.784 11.477.73 3.525.874 7.132.423 10.767l-.055.341-10.493 2.2-.907-4.284 8.876-1.837c.484-2.062.291-4.19 0-5.637-1.463-6.95-6.38-9.915-13.87-8.348-7 1.463-10.569 6.083-9.232 12.473.698 3.211 2.799 6.379 5.41 7.847l.182.11-2.997 2.491M288.012 328.037l-2.459-3.497 6.22-12.99-14.353 1.452-3.113-4.46 18.676-1.094c.22-.149 9.337-6.56 9.337-6.56l2.525 3.563s-9.443 6.626-9.646 6.758l-7.187 16.828M543.374 156.356l1.715 3.905-8.611 11.531 14.336 1.389 2.216 4.97-18.543-2.563c-.253.092-10.449 4.614-10.449 4.614l-1.77-3.993s10.547-4.653 10.772-4.745l10.334-15.108M279.367 289.878l-5.802 16.916-1.952-3.987 5.455-15.904c-.753.363-10.696 5.285-10.696 5.285l-1.925-3.921 24.521-12.093 1.936 3.926-11.895 5.846 16.811 4.102 2.431 4.972-18.884-5.142M361.305 363.331l8.079 15.931-4.213-1.363-7.6-14.997c-.27.787-3.651 11.345-3.651 11.345l-4.18-1.342 8.43-26.017 4.169 1.353-4.091 12.599 14.65-9.184 5.273 1.721-16.866 9.954M384.1 354.664l3.266.336 5.164 21.584 8.799-20.22 3.767.363 6.379 28.106-3.767-.363-5.192-22.233-9.04 20.825-2.502-.236-5.104-22.19-8.562 20.826-4.603-.429 11.394-26.369M426.57 382.793l-1.903.225-15.007-26.055 3.717-.484 5.522 9.783 8.375-1.006 2.892-10.817 5.104-.622zm-2.15-5.994c.45-1.6 1.87-7.787 2.177-8.87l-6.66.819 4.483 8.05M533.65 317.644l-22.65-15.3 2.436-3.596 22.662 15.283-2.447 3.613M559.646 207.258l-26.985 4.36-.676-4.294 26.973-4.361.688 4.295M492.825 339.25c-3.822-5.56-7.842-6.462-12.137-3.52-4.812 3.306-4.96 6.638-.935 12.522l8.65 12.577-3.59 2.453-8.838-12.902c-1.88-2.782-3.607-5.983-2.827-9.238.655-2.838 2.59-5.307 5.747-7.474 6.038-4.146 11.708-3.14 15.953 3.03l9.2 13.413-2.584 1.76-8.64-12.621M316.228 334.752c4.702-4.834 4.834-8.937 1.116-12.566-4.179-4.103-7.495-3.619-12.477 1.48l-10.69 10.904-3.07-3.04 10.933-11.159c2.387-2.376 5.175-4.696 8.53-4.553 2.908.093 5.68 1.512 8.44 4.185 5.23 5.136 5.34 10.894.116 16.244l-11.394 11.61-2.222-2.173 10.718-10.932M270.298 205.85c6.556 1.562 10.152-.468 11.345-5.516 1.364-5.714-.764-8.282-7.699-9.926l-14.858-3.525 1.011-4.219 15.222 3.62c3.24.814 6.665 2.007 8.299 4.96 1.407 2.535 1.776 5.692.885 9.42-1.7 7.143-6.704 10.163-13.996 8.43l-15.81-3.745.726-3.03 14.875 3.53M519.6 288.492l1.128-2.2 29.58 2.266-1.804 3.52-23.294-2.255 15.403 17.581-2.233 4.339-18.78-23.25M530.131 271.736c.814.258 8.739 2.76 9.536 3.008l2.854-9.035 2.667.83-2.881 9.04c.786.248 7.853 2.481 8.617 2.729l3.113-9.86 2.243.709-4.41 13.973-26.072-8.226 4.493-14.21 3.019.956-3.179 10.086" style="fill:#fff;fill-opacity:1;fill-rule:nonzero;stroke:none;stroke-width:.549923" transform="matrix(2.25701 0 0 -2.25701 -570.944 868.572)"/><path d="m558.42 197.925-2.211.622-2.31-8.172c-.89.247-24.103 6.797-24.103 6.797l-1.171-4.174 24.103-6.791-2.205-7.83 2.216-.6 5.68 20.148M531.473 256.42l.534-4.305 13.203 1.726-11.664-13.374.589-4.591 11.664 13.297c.775-4.45 4.36-7.974 8.304-7.457 4.476.583 6.379 3.673 5.603 9.7l-1.127 8.557zm16.3-2.232c.775.093 8.221 1.072 9.035 1.177l.55-4.103c.44-3.415-1.364-5.108-3.827-5.334-2.558-.247-4.67.825-5.274 4.68l-.484 3.58M335.305 366.317l-2.656-1.672 10.42-16.426c-9.623 2.491-26.357 6.33-26.357 6.33l-1.87-1.194 14.628-23.069 2.634 1.672s-6.082 9.59-10.943 17.284l27.194-7.006 1.578 1.012-14.628 23.07M252.965 239.076l.077-3.129 19.429.38c-7.11-6.919-19.066-19.248-19.066-19.248l.044-2.205 27.337.539-.088 3.134s-11.34-.236-20.463-.417l20.089 19.62-.044 1.881-27.315-.555M467.715 371.805l-2.964 1.001-6.22-18.433c-4.113 9.035-11.663 24.46-11.663 24.46l-2.096.715-8.732-25.89 2.953-1s3.651 10.761 6.555 19.406l11.675-25.56 1.77-.594 8.722 25.895M528.218 325.656l-2.107 2.288-14.243-13.226c.688 9.904 1.408 27.056 1.408 27.056l-1.512 1.633-20.023-18.592 2.107-2.288s8.342 7.726 15.023 13.924l-1.919-28.024 1.265-1.375 20 18.604M339.578 153.933c-2.64 2.298-7.177 6.571-11.213 11.806-18.582 20.837-39.77 75.427-4.499 124.975 14.562 20.418 35.443 34.166 56.192 39.754a103.004 103.004 0 0 0 102.61-28.294c1.897-2.062 1.633-4.669.17-5.884-2.095-1.77-4.009-.847-8.26.385-6.626 1.925-12.34 2.387-18.472 1.6-14.21-1.815-26.533-15.002-24.823-33.413 1.545-16.822 14.512-28.959 23.63-36.982 31.962-28.162 21.277-58.341 18.664-64.968-8.848-22.501-31.5-38.385-60.865-38.385-12.214 0-29.839 3.169-47.54 14.403-.688.297-1.381 1.21-.534 2.728 1.364 3.414 7.011 13.4 9.442 16.284 8.826-10.174 23.669-19.755 40.2-20.359 22.557-.835 37.097 11.388 42.415 26.887 6.005 17.408-.374 35.166-17.24 51.18-14.53 13.802-27.507 26.572-28.277 48.47-.946 28.046 23.487 44.703 46.171 43.597.688-.044-31.373 23.092-72.518 9.31-20.138-6.741-32.193-18.62-37.983-25.39-.858-1.05-.297-1.847-.011-2.265.638-.924 14.622-20.43 14.622-20.43l-25.241 5.802s-1.045.259-1.556-.605c-8.002-13.82-19.842-53.81 6.538-90.22 0 0 22.481 35.607 67.107 38.637 2.975.193 2.59-.863.633-1.572-39.859-14.661-55.592-43.894-65.744-66.44-.643-1.393-2.287-1.805-3.618-.61" style="fill:#fff;fill-opacity:1;fill-rule:nonzero;stroke:none;stroke-width:.549923" transform="matrix(2.25701 0 0 -2.25701 -570.944 868.572)"/><path d="M380.673 181.406s2.48 1.106 3.19 1.497l.01-17.284h3.113v20.32l-.495.345-.181-.088a93.93 93.93 0 0 0-6.583-2.986l.946-1.804M397.276 175.78c2.535 0 3.772-1.302 3.772-3.998 0-2.74-1.71-4.51-4.36-4.51-1.904 0-3.201 1.277-3.663 1.827l-.385.45-.754-2.695.226-.11c1.094-.515 2.491-1.04 4.531-1.04 4.46 0 7.7 2.708 7.7 6.458 0 3.426-2.652 4.4-4.274 4.702 1.771.741 3.344 2.352 3.344 4.767 0 2.86-2.25 4.62-5.846 4.632-3.052.01-4.62-1.986-4.62-1.986l1.343-2.332.225.666c.357 1.04 1.463 2.094 2.937 2.094 1.275 0 2.799-.853 2.799-3.254 0-1.872-.523-4.093-2.975-4.093l-1.623.116v-1.92s.902.25 1.623.225M408.599 169.73l.835-3.288s1.293-.748 3.13-.737c5.207.012 8.859 4.885 8.859 11.9 0 7.81-4.768 8.658-6.82 8.658-3.964 0-6.736-2.686-6.736-6.522 0-3.747 2.255-6.067 5.95-6.067 1.837 0 3.3.73 4.361 2.095-.181-4.372-1.936-8.37-5.51-8.38-2.854-.01-4.07 2.341-4.07 2.341zm5.691 5.654c-2.177 0-3.255 1.424-3.255 4.357 0 2.969 1.44 4.964 3.558 4.964 2.106 0 3.53-1.689 3.53-4.202 0-2.556-1.309-5.119-3.833-5.119M433.829 177.39c1.77.793 2.942 2.393 2.942 4.297 0 2.105-1.534 4.576-5.857 4.576-3.283 0-5.752-2.108-5.752-4.911 0-2.09 1.414-3.553 2.953-4.125-2.535-.997-3.976-2.932-3.976-5.561 0-3.568 2.728-5.961 6.775-5.961 3.921 0 6.78 2.784 6.78 6.627 0 3.542-2.622 4.713-3.865 5.059zm-5.664 3.923c0 .804.209 3.392 2.782 3.392 2.547 0 2.805-2.363 2.805-3.392 0-.797-.181-3.398-2.805-3.398-2.573 0-2.782 2.6-2.782 3.398zm2.75-14.04c-2.156 0-3.597 1.826-3.597 4.543 0 2.716 1.44 4.541 3.596 4.541 2.15 0 3.591-1.825 3.591-4.54 0-2.76-1.396-4.544-3.59-4.544" style="fill:#fff;fill-opacity:1;fill-rule:nonzero;stroke:none;stroke-width:.549923" transform="matrix(2.25701 0 0 -2.25701 -570.944 868.572)"/></svg>