<svg xmlns="http://www.w3.org/2000/svg" xml:space="preserve" style="fill-rule:nonzero;clip-rule:evenodd;stroke-linecap:round;stroke-linejoin:round" viewBox="0 0 452.13 206.14"><g fill="#fefefe"><path d="M67.429 100.468c18.252 0 33.04-14.78 33.04-33.035 0-18.257-14.788-33.037-33.04-33.037s-33.034 14.78-33.034 33.037c0 18.255 14.782 33.035 33.034 33.035M0 67.433C0 30.197 30.196 0 67.429 0c37.238 0 67.429 30.197 67.429 67.433 0 37.247-30.191 67.439-67.429 67.439C30.196 134.872 0 104.68 0 67.433M336.971 125.148h115.164v-34.02h-81.139V44.192h81.139v-34.01H336.971v114.966ZM231.201 5.619 146.49 106.394l26.055 21.865 58.656-69.782 59.222 70.113 26.07-21.854L231.201 5.619ZM17.817 173.261l2.74 15.451c.395 2.284.47 4.583.694 6.868h.084c.295-2.285.463-4.584.943-6.868l3.223-15.451h5.053l4.12 22.319h.085c.215-2.285.25-4.497.65-6.781l2.523-15.538h6.698l-6.698 32.359h-5.535l-3.3-17.082c-.213-1.952-.598-3.939-.904-5.909h-.082c-.347 1.97-.563 3.957-1.027 5.909l-3.69 17.082h-5.577l-6.527-32.359h6.527ZM61.096 200.211c4.249 0 4.549-8.185 4.549-10.77 0-2.855-.3-10.752-4.55-10.752-4.236 0-4.541 7.897-4.541 10.752 0 2.585.305 10.77 4.542 10.77m11.366-10.77c0 12.151-5.66 16.694-11.366 16.694-5.701 0-11.36-4.543-11.36-16.694 0-12.141 5.659-16.694 11.36-16.694 5.706 0 11.366 4.553 11.366 16.694M89.707 200.211c4.25 0 4.547-8.185 4.547-10.77 0-2.855-.297-10.752-4.547-10.752-4.243 0-4.554 7.897-4.554 10.752 0 2.585.311 10.77 4.554 10.77m11.36-10.77c0 12.151-5.655 16.694-11.36 16.694-5.712 0-11.367-4.543-11.367-16.694 0-12.141 5.655-16.694 11.367-16.694 5.705 0 11.36 4.553 11.36 16.694M121.397 180.574c-1.286-1.117-2.872-2.06-4.632-2.06-1.956 0-3.216 1.201-3.216 3.172 0 5.313 9.74 5.614 9.74 14.353 0 5.757-3.305 10.096-9.316 10.096-1.8 0-4.023-.556-5.477-1.625v-6.1c1.484 1.028 2.955 1.713 4.839 1.713 2.058 0 3.692-1.355 3.692-3.512 0-2.499-1.978-3.427-3.778-4.727-3.682-2.473-5.962-4.885-5.962-9.597 0-5.114 2.963-9.54 8.449-9.54 2.056 0 3.906.572 5.661 1.599v6.228ZM140.834 200.211c4.247 0 4.548-8.185 4.548-10.77 0-2.855-.301-10.752-4.548-10.752-4.243 0-4.548 7.897-4.548 10.752 0 2.585.305 10.77 4.548 10.77m11.361-10.77c0 12.151-5.654 16.694-11.361 16.694-5.706 0-11.376-4.543-11.376-16.694 0-12.141 5.67-16.694 11.376-16.694 5.707 0 11.361 4.553 11.361 16.694M165.355 173.261l7.985 19.535.087-.098c-.387-1.544-.51-3.202-.51-4.883v-14.554h6.394v32.359h-6.052l-7.904-19.519-.071.084.296 3.256.045 1.328v14.851h-6.404v-32.359h6.134ZM208.222 187.615v2.509c0 6.871-1.672 16.011-10.382 16.011-8.704 0-11.538-9.355-11.538-16.523 0-7.456 2.396-16.866 11.538-16.866 4.932 0 8.159 3.086 9.541 7.698l-6.237 2.383c-.29-1.61-.816-4.139-3.268-4.139-4.329-.286-4.757 7.709-4.757 10.753 0 3.355.219 10.769 4.94 10.769 3.259 0 3.769-4.37 3.769-6.598h-4.068v-5.997h10.462ZM235.638 173.261v20.947c0 2.445-.317 6.157 3.176 6.157 3.136 0 3.136-2.368 3.177-4.785v-22.319h6.384v23.607c0 3.441-.393 9.267-9.601 9.267-5.977 0-9.537-2.769-9.537-8.84v-24.034h6.401ZM262.892 173.261l7.984 19.535.078-.098c-.393-1.544-.511-3.202-.511-4.883v-14.554h6.393v32.359h-6.046l-7.898-19.519-.077.084.286 3.256.05 1.328v14.851h-6.394v-32.359h6.135ZM291.747 205.621h-6.394v-32.359h6.394v32.359ZM304.494 173.261l3.854 15.538c.572 1.84.787 3.696 1.174 5.526h.087c.341-1.886.469-3.711.984-5.613l3.901-15.451h6.705l-8.969 32.359h-5.242l-9.348-32.359h6.854ZM339.968 173.261v6.029h-6.491v7.025h5.716v5.997h-5.716v7.296h6.572v6.012h-12.961v-32.359h12.88ZM355.014 187.17l1.113.043c2.931 0 4.079-1.97 4.079-4.627 0-2.328-1.123-4.214-4.33-4.041h-.862v8.625Zm-6.383 18.451v-32.359h6.435c4.069 0 11.361.439 11.361 9.281 0 3.559-1.413 6.613-4.585 8.369l5.614 14.709h-6.73l-5.619-14.923h-.093v14.923h-6.383ZM387.221 180.574c-1.285-1.117-2.866-2.06-4.64-2.06-1.957 0-3.202 1.201-3.202 3.172 0 5.313 9.724 5.614 9.724 14.353 0 5.757-3.295 10.096-9.286 10.096-1.809 0-4.048-.556-5.512-1.625v-6.1c1.505 1.028 2.963 1.713 4.86 1.713 2.044 0 3.671-1.355 3.671-3.512 0-2.499-1.972-3.427-3.759-4.727-3.702-2.473-5.964-4.885-5.964-9.597 0-5.114 2.967-9.54 8.438-9.54 2.07 0 3.91.572 5.67 1.599v6.228ZM403.186 205.621h-6.369v-32.359h6.369v32.359ZM426.953 173.261v6.029h-5.064v26.33h-6.379v-26.33h-5.028v-6.029h16.471ZM437.348 173.261l3.361 8.812.473 1.583h.088l.724-2.399 2.88-7.996h7.154l-7.546 16.863v15.496h-6.394v-15.496l-7.761-16.863h7.021Z"/></g></svg>