<svg xmlns="http://www.w3.org/2000/svg" xml:space="preserve" style="fill-rule:evenodd;clip-rule:evenodd;stroke-linejoin:round;stroke-miterlimit:2" viewBox="0 0 2363 2363"><path d="M0 5.921V0h-16.185v2.171h12.672v3.75z" style="fill:#fff;fill-rule:nonzero" transform="translate(1086.642 1079.313)scale(8.29568)"/><path d="M0 16.006V0h-3.256v5.526h-1.52V0h-3.256v12.947h-5.843V2.053h4.441V0h-7.737v15.019h9.139v.987h3.256V7.697h1.52v8.309z" style="fill:#fff;fill-rule:nonzero" transform="translate(1252.016 995.642)scale(8.29568)"/><path d="M0-5.408c1.303 0 2.349 1.066 2.349 2.684S1.362 0 0 0c-1.361 0-2.348-1.106-2.348-2.724S-1.323-5.408 0-5.408m0 7.342c3.257 0 5.823-1.875 5.823-4.638S3.257-7.342 0-7.342c-3.276 0-5.822 1.874-5.822 4.638S-3.276 1.934 0 1.934" style="fill:#fff;fill-rule:nonzero" transform="translate(990.86 1053.604)scale(8.29568)"/><path d="M0 5.526V0h-16.185v2.17h12.711v3.356z" style="fill:#fff;fill-rule:nonzero" transform="translate(1409.203 1082.59)scale(8.29568)"/><path d="M0-3.67c1.184 0 2.132.987 2.132 2.507 0 1.5-.888 2.526-2.132 2.526S-2.132.337-2.132-1.163c0-1.52.928-2.507 2.132-2.507m0 6.967c3.237 0 5.428-1.836 5.428-4.244 0-1.025-.415-1.953-1.126-2.664h1.974v-1.974H1.737v-1.382h-3.474v1.382h-4.54v1.974h1.974c-.711.711-1.125 1.639-1.125 2.664 0 2.408 2.191 4.244 5.428 4.244" style="fill:#fff;fill-rule:nonzero" transform="translate(1317.187 1046.885)scale(8.29568)"/><path d="M0-16.007h-16.383v2.171h12.988v11.665h-2.289v-8.802h-3.158v8.802h-1.975v-8.802h-3.157v8.802h-3V0H1.579v-2.171H0z" style="fill:#fff;fill-rule:nonzero" transform="translate(1571.309 1128.423)scale(8.29568)"/><path d="M0 4.717h2.17V2.546H0v-5.033h-3.474v9.691H0z" style="fill:#fff;fill-rule:nonzero" transform="translate(1409.203 1016.274)scale(8.29568)"/><path d="M268.7 296.233h3.513v9.297H268.7z" style="fill:#fff" transform="translate(-1171.55 -1461.812)scale(8.29568)"/><path d="M0 5.98c.828-.356 2.091-.552 3.434-.552s2.605.196 3.434.552c.868.376 1.303.907 1.303 1.539s-.415 1.165-1.303 1.54c-.829.356-2.091.553-3.434.553S.828 9.415 0 9.059c-.889-.375-1.303-.908-1.303-1.54S-.869 6.356 0 5.98M.019.197c-.513-.236-.73-.572-.73-.948 0-.375.217-.71.73-.946.75-.355 2.053-.553 3.415-.553 1.361 0 2.664.198 3.415.553.513.236.73.571.73.946 0 .376-.217.712-.73.948C6.098.572 4.816.75 3.434.75S.769.572.019.197m-4.875 7.599c0 2.23 3.197 3.79 8.29 3.79 5.091 0 8.29-1.56 8.29-3.79 0-1.046-.712-1.875-2.014-2.448h3.001V3.276H5.21v-.81c3.789-.275 5.921-1.44 5.921-2.94 0-.731-.473-1.322-1.382-1.776h2.763v-1.974H5.21v-1.382H1.657v1.382h-7.302v1.974h2.763c-.909.454-1.382 1.045-1.382 1.776 0 1.5 2.133 2.665 5.921 2.94v.81h-7.499v2.072h2.999c-1.302.573-2.013 1.402-2.013 2.448" style="fill:#fff;fill-rule:nonzero" transform="translate(824.017 1035.594)scale(8.29568)"/><path d="m0-57.167 1.963 2.145v40.697L0-16.417zM4.368-9.88h-29.899l-4.333 3.624h-9.469l-4.314-3.607-.02-.017h-30.181l2.039-2.173h29.394l4.314 3.605.02.017h6.965l4.334-3.622h29.11zM3.251-53.615l1.96 2.141v40.611l-1.96-2.089zM7.617-6.417h-31.428l-4.334 3.623h-12.908L-45.367-6.4l-.02-.017h-31.711l2.041-2.174h30.922l4.314 3.606.02.017h10.405l4.334-3.623H5.576zM6.499-50.066l1.961 2.141V-7.4L6.499-9.49zm4.366 47.112h-32.956L-26.425.67h-16.348l-4.314-3.608-.02-.016h-33.239l2.04-2.175h32.451l4.314 3.608.02.016h13.845l4.334-3.624H8.825zM9.748-46.517l1.96 2.141v40.439l-1.96-2.09zm-90.937 2.141 1.961-2.145v40.494l-1.961 2.09zm3.249-3.555 1.96-2.145V-9.49l-1.96 2.09zm3.248-3.554 1.96-2.145v40.678l-1.96 2.089zm3.249-3.554 1.958-2.143v40.77l-1.958 2.087zm2.88 39.527h29.396l4.521 3.774.045.038 4.574-3.812h29.11l2.037 2.17h-28.37l-4.334 3.623h-6.03l-4.314-3.606-.02-.017h-28.653zm.366-42.325h29.03l3.922 3.287v40.634l-3.431-2.869-.019-.016h-29.502zm34.24 3.287 3.93-3.287h28.739v41.036h-29.211l-3.458 2.885zm3.458-4.575-4.102 3.441-4.074-3.424-.02-.017h-30.75l-13.014 14.228-.019.021v43.21h34.903l4.314 3.607.02.017h17.285l4.334-3.624h34.619v-43.21L-.04-59.125z" style="fill:#fff;fill-rule:nonzero" transform="translate(1466.999 1714.488)scale(8.29568)"/><path d="M0 19.972h-11.095V0h44.382v4.438h2.219v-6.657h-48.82v24.41H0z" style="fill:#fff;fill-rule:nonzero" transform="translate(1032.712 678.615)scale(8.29568)"/><path d="M265.711 323.776h33.287v15.533h-33.287z" style="fill:#fff" transform="translate(-1171.55 -1970.52)scale(8.29568)"/><path d="M0 11.096h-35.506v6.657h48.82v-24.41H0z" style="fill:#fff;fill-rule:nonzero" transform="translate(1327.258 770.655)scale(8.29568)"/><path d="M0-14.49c-1.87.846-6.614 1.519-8.519-1.989a8 8 0 0 1-.742-2.017c-.141-.854-.082-1.703.163-2.328a3.77 3.77 0 0 1 2.277-2.165c.269-.092.541-.139.808-.139 1.275 0 2.263 1.236 2.304 1.289l.087.111 1.288-1.007-.098-.113c-2.513-2.906-4.254-6.908-4.795-8.421 1.875-.209 3.671.003 5.343.632a10.4 10.4 0 0 1 3.702 2.373c.003.003.37.394.714.801a8.8 8.8 0 0 1 1.521 2.788C5.859-19.122 1.715-15.266 0-14.49m-10.455-7.264c-1.454-3.303-3.124-5.505-4.069-6.599.443-.289.903-.576 1.368-.853a15.4 15.4 0 0 1 4.314-1.776c.426 1.328 1.34 3.768 2.941 6.249a4 4 0 0 0-1.441.215 5.43 5.43 0 0 0-3.113 2.764M-25.854-6.116c-.423 14.016 7.297 23.451 12.915 25.674 2.554 1.01 5.35.934 7.747-.195-1.577 2.78-3.64 6.773-4.977 10.717-.863 2.548-1.631 5.413-2.443 8.446l-.229.856c-1.42 5.323-3.189 11.947-5.333 16.306-5.946 12.085-14.5 20.379-26.923 26.102-10.259 4.726-21.661 7.122-33.888 7.122-5.093 0-20.589 0-36.047-7.122-12.518-5.768-20.738-13.701-26.652-25.724-2.216-4.503-4.276-11.72-5.823-17.505l-.015-.057c-.81-3.025-1.575-5.882-2.436-8.424-1.337-3.944-3.4-7.936-4.978-10.716 2.398 1.13 5.194 1.205 7.747.194 5.216-2.064 13.251-10.769 12.608-25.343-.552-12.549-4.227-20.433-11.565-24.809-4.185-2.497-8.684-3.049-12.666-1.556a9 9 0 0 0-.459.185c2.608-3.68 5.974-8.633 7.842-12.192 2.601-4.953 3.347-8.423 4.983-16.026l.011-.053c.443-2.055.944-4.384 1.567-7.137.899-3.976 2.979-6.96 6.019-8.638l.007.014.862-.453a12 12 0 0 1 1.564-.569c2.902-.826 6.394-.563 8.961.663-3.458 3.483-8.306 5.954-8.513 6.059-2.528 1.279-4.973 4.262-4.255 8.794.93 5.869 6.929 6.682 10.328 6.238 2.241-.295 5.545-1.74 7.478-4.841l.001-.001c.08-.132 8.058-13.233 16.399-21.009 4.696-4.377 8.358-7.543 10.885-9.413 1.042.577 7.499 3.974 15.068 3.974 7.557 0 14.024-3.396 15.068-3.973 2.531 1.871 6.192 5.037 10.885 9.412 6.457 6.019 12.659 15.123 15.78 20.013 2.142 3.448 4.867 5.412 8.099 5.838 3.397.445 9.397-.369 10.326-6.238.72-4.534-1.744-7.482-4.288-8.728-.049-.026-4.972-2.588-8.479-6.124 2.567-1.229 6.059-1.491 8.961-.664.552.158 1.322.457 1.562.567.236.107.354.168.49.237l.035.019c3.229 1.64 5.43 4.691 6.365 8.823a631 631 0 0 1 1.579 7.198c1.636 7.599 2.382 11.067 4.982 16.018 1.866 3.553 5.233 8.509 7.842 12.192a9 9 0 0 0-.459-.185c-3.981-1.494-8.479-.941-12.667 1.556-7.735 4.613-11.508 12.392-11.871 24.478m11.689 16.458c.522 1.37 1.587 2.405 2.9 2.8.799.24 1.447.357 2.01.36-.787 1.226-1.748 2.987-2.205 4.844a8 8 0 0 1-.886-.29c-1.562-.618-3.287-1.882-4.867-3.568.688-.704 1.9-2.093 3.048-4.146m1.468-3.208c.37-1.25 1.408-2.392 2.71-2.983 1.011-.457 2.657-.8 4.763.171 1.573.723 2.727 1.995 3.337 3.677.728 2.003.61 4.365-.315 6.317-1.323 2.795-4.462 4.548-7.661 4.311.919-3.479 4.337-7.484 4.372-7.524l.101-.117-1.335-.97-.083.115c-1.352 1.857-2.365 1.952-3.993 1.464-1.433-.431-2.584-2.141-1.896-4.461m-145.229 7.182c-.925-1.952-1.042-4.313-.315-6.317.61-1.682 1.764-2.954 3.337-3.677.896-.414 1.788-.623 2.649-.623.739 0 1.45.152 2.112.452 1.364.618 2.563 1.885 2.917 3.081.723 2.437-.804 4.13-2.118 4.554-1.597.513-2.749.034-3.977-1.655l-.083-.115-1.334.971.1.117c.143.167 3.463 4.065 4.374 7.523-3.205.24-6.337-1.516-7.662-4.311m12.159-3.886c1.189 2.166 2.33 3.497 2.855 4.055-1.578 1.686-3.305 2.952-4.871 3.571a8 8 0 0 1-.885.29c-.453-1.838-1.396-3.576-2.174-4.793a5.2 5.2 0 0 0 1.969-.223c1.358-.408 2.548-1.528 3.106-2.9m-3.907-32.183a5.43 5.43 0 0 0-3.112-2.765 4 4 0 0 0-1.299-.218q-.07 0-.14.002c1.597-2.478 2.513-4.919 2.94-6.248 1.477.353 2.928.95 4.313 1.776.46.274.909.554 1.367.853-.944 1.093-2.614 3.294-4.069 6.6m-1.169 3.121-.045.245a7.1 7.1 0 0 1-.722 1.907c-1.903 3.511-6.646 2.837-8.518 1.99-1.714-.776-5.859-4.631-4.053-10.185a8.9 8.9 0 0 1 1.522-2.788c.25-.308.58-.688.68-.769l.027-.024a10.45 10.45 0 0 1 3.708-2.381 11.2 11.2 0 0 1 3.957-.71c.455 0 .921.026 1.386.078-.543 1.515-2.287 5.521-4.796 8.421l-.097.113 1.291 1.008.087-.113c.013-.017 1.379-1.747 3.109-1.149a3.77 3.77 0 0 1 2.277 2.165c.257.656.32 1.394.187 2.192m18.701-52.002c1.759-1.114 4.144-2.809 6.111-4.868q.308.235.554.486c1.2 1.215 2.049 2.48 2.591 3.864-.926.71-3.089 2.482-5.275 5.079a5.3 5.3 0 0 0-.497-1.626c-.738-1.511-1.967-2.543-3.484-2.935m2.034 3.645c.912 1.866-.215 3.807-.264 3.889l-.07.118 1.344.858.078-.115c2.506-3.733 5.66-6.449 6.623-7.237.464 2.365.005 4.629-.454 6.352-1.004 3.777-4.464 5.89-7.255 6.256-2.817.372-7.784-.238-8.521-4.887-.721-4.55 2.487-6.894 4.17-7.325l.017-.005c.293-.073.6-.11.912-.11.704 0 2.446.215 3.42 2.206m16.029-24.533c4.148-3.143 10.8-10.382 11.661-11.324.452-.165 1.66-.5 3.697-.369 2.375.151 4.826 2.024 5.962 4.554.991 2.214-.06 4.71-1.19 5.389-.967.579-3.91 2.343-13.168 10.973-5.208 4.854-10.194 11.608-13.568 16.603.353-2.737.179-6.586-3.643-10.456-1.36-1.376-4.392-2.983-8.461-2.983q-.149 0-.297.003c7.9-4.506 14.973-9.334 19.007-12.39m82.609 23.823a5.3 5.3 0 0 0-.496 1.625c-2.115-2.516-4.17-4.233-5.275-5.078.542-1.385 1.39-2.65 2.589-3.864q.254-.256.554-.486c1.971 2.061 4.356 3.756 6.115 4.869-1.518.392-2.748 1.423-3.487 2.934m1.712 4.597c-.012-.02-1.173-2.025-.262-3.887.957-1.957 2.863-2.462 4.332-2.096 1.678.421 4.911 2.765 4.187 7.33-.737 4.646-5.704 5.257-8.521 4.887-1.889-.247-4.672-1.458-6.295-4.052-.179-.317-.494-.925-.521-.977a8 8 0 0 1-.439-1.227c-.458-1.724-.916-3.989-.453-6.352.964.788 4.119 3.506 6.622 7.237l.078.115 1.342-.86zM-67.369-98.66c1.135-2.531 3.587-4.404 5.962-4.555q.468-.03.879-.029c1.549 0 2.497.283 2.818.398.862.943 7.516 8.184 11.661 11.324 4.038 3.059 11.114 7.889 19.01 12.39-3.925-.075-7.208 1.41-8.761 2.98-3.783 3.83-3.985 7.608-3.664 10.288-3.387-4.935-8.382-11.621-13.547-16.435-9.26-8.631-12.201-10.394-13.167-10.973-1.131-.679-2.182-3.175-1.191-5.388M5.589-25.174c-.536-1.647-1.528-2.989-2.515-4.189-5.073-6.906-8.553-12.136-10.343-15.545-2.498-4.759-3.23-8.161-4.834-15.612l-.039-.187c-.437-2.025-.932-4.321-1.542-7.023-1.106-4.887-3.794-8.408-7.763-10.177-9.583-5.049-18.717-11.183-23.627-14.902-4.342-3.29-11.62-11.276-11.69-11.353l-.122-.092c-.163-.078-1.676-.758-4.623-.573s-5.963 2.45-7.333 5.505c-1.366 3.048.174 6.439 1.833 7.434.129.078.296.178.511.316-1.888.929-7.491 3.401-13.566 3.401-6.08 0-11.679-2.471-13.566-3.4.216-.138.382-.239.511-.317 1.659-.996 3.198-4.387 1.833-7.434-1.371-3.055-4.386-5.319-7.332-5.505-2.927-.19-4.459.494-4.647.587l-.078.059-.021.019c-.069.077-7.393 8.097-11.691 11.353-4.904 3.716-14.031 9.846-23.603 14.891-3.987 1.779-6.679 5.302-7.786 10.188-.628 2.778-1.148 5.196-1.566 7.138l-.015.07c-1.604 7.454-2.336 10.856-4.834 15.614-2.547 4.853-8.059 12.522-10.298 15.578-1.183 1.207-2.068 2.644-2.56 4.156-2.147 6.601 2.857 11.22 4.922 12.156 2.3 1.043 8.162 1.813 10.604-2.692.528-.972.991-2.36 1.031-2.543.944-4.371 4.077-8.221 4.899-9.173 4.476 3.329 7.488 11.426 8.066 21.704.517 9.182-2.762 15.372-5.652 18.979-.809-.872-2.578-3.046-3.839-6.508-.492-1.628-2.014-3.263-3.79-4.069-1.315-.596-3.442-1.049-6.104.174-1.972.909-3.418 2.498-4.18 4.593-.871 2.401-.731 5.227.374 7.56.187.394.414.786.675 1.166l-.036.022.22.331c.046.07 4.687 7.133 7.039 14.073.847 2.5 1.611 5.355 2.426 8.402 1.566 5.849 3.654 13.156 5.928 17.779 6.089 12.378 14.547 20.543 27.426 26.477 15.781 7.27 31.543 7.27 36.723 7.27 12.462 0 24.091-2.446 34.564-7.27 12.779-5.887 21.579-14.421 27.696-26.855 2.21-4.491 5.672-17.449 5.672-17.449.805-3.011 1.566-5.854 2.413-8.354 2.442-7.207 6.931-13.988 6.975-14.052.419-.605.712-1.094.924-1.541C.363 12.673.503 9.848-.368 7.447c-.763-2.096-2.208-3.684-4.181-4.593-2.657-1.225-4.786-.771-6.104-.174-1.704.774-3.076 2.29-3.578 3.949-1.239 3.41-3.166 5.703-4.047 6.631-2-2.507-6.341-9.162-5.962-19.32.381-10.23 3.276-17.614 8.375-21.367 1.04 1.185 3.425 4.264 4.984 9.091.145.856.462 1.739.943 2.625 2.44 4.502 8.304 3.734 10.605 2.693 2.065-.936 7.069-5.555 4.922-12.156" style="fill:#fff;fill-rule:nonzero" transform="translate(1844.162 1235.388)scale(8.29568)"/><path d="M0 13.048c1.775-.171 4.157-.42 6.462-.67.078.452.14.872.171 1.262l1.838-.545c-.218-1.931-1.028-4.781-2.087-7.007l-1.681.529c.544 1.199 1.027 2.647 1.385 4.002-1.121.093-2.257.202-3.316.28.872-3.223 1.76-7.536 2.273-11.211l-2.149-.28C2.554 3.051 1.76 7.692.903 11.055l-1.152.078z" style="fill:#fff;fill-rule:nonzero" transform="translate(1319.303 1279.413)scale(8.29568)"/><path d="M0-6.961c-.171 1.728-.498 3.877-.794 5.279l1.853.311.124-.67H3.41C3.223.233 2.974 1.23 2.678 1.525c-.187.156-.327.187-.591.187-.343 0-1.075-.015-1.807-.078.327.514.546 1.261.577 1.838.809.015 1.603.031 2.07-.031.561-.078.935-.234 1.308-.639.53-.592.81-2.149 1.091-5.761.031-.249.046-.748.046-.748H1.448c.078-.498.156-1.012.218-1.526h3.66v-5.231H-.436v1.728h3.971v1.775z" style="fill:#fff;fill-rule:nonzero" transform="translate(1275.775 1363.249)scale(8.29568)"/><path d="M0 3.534h6.354V2.133a11.5 11.5 0 0 0 2.522 2.18c.327-.436 1.012-1.106 1.448-1.417C8.751 2.102 7.272.653 6.525-.779H1.013V.934h4.406c.249.358.529.731.826 1.074H0z" style="fill:#fff;fill-rule:nonzero" transform="translate(1302.122 1425.425)scale(8.29568)"/><path d="M0-4.999v.093h4.905c.405.545.872 1.075 1.402 1.573h-7.63C-.825-3.847-.374-4.407 0-4.999M5.528-.032h-1.09v-1.869h1.09zm-2.523 0H1.916v-1.869h1.089zm-2.538 0H-.592v-1.869H.467zm-4.064-1.479c.452-.28.919-.607 1.37-.981v2.46h-2.226v1.667h13.78V-.032H7.256v-2.522c.39.296.81.56 1.23.794.312-.452.981-1.137 1.418-1.464-1.667-.701-3.193-2.024-3.925-3.41H0v1.121l-1.526-.482c-.716 1.261-2.039 2.413-3.441 3.098.405.327 1.074 1.044 1.37 1.386" style="fill:#fff;fill-rule:nonzero" transform="translate(1307.937 1518.17)scale(8.29568)"/><path d="M.861-.222c.933 1.351 1.716 3.294 1.942 5.084L.861 4.734C.675 3.29-.036 1.738-.968.57-.467.421.445.008.861-.222" style="fill:#fff;fill-rule:nonzero" transform="scale(8.29568 -8.29568)rotate(-20.026 -421.01 -523.012)"/><path d="M0-12.271c.016-.327.031-.638.047-.887h-2.118c-.109 2.055.109 9.124-6.104 12.566.623.436 1.23.996 1.557 1.479 3.286-2.009 4.92-5.014 5.762-7.817C.016-4.065 1.759-.857 5.278.887 5.574.389 6.135-.25 6.711-.686.903-3.411.125-10.122 0-12.271" style="fill:#fff;fill-rule:nonzero" transform="translate(1040.767 1383.656)scale(8.29568)"/><path d="M268.179 243.866h2.476v.918h-2.476zm0-2.071h2.476v.825h-2.476zm-1.028 7.52h-2.569v-.934h2.569zm0 2.29h-2.569v-.966h2.569zm-.732-5.497h4.235v6.088c0 .249-.093.343-.373.343a20 20 0 0 1-1.386 0v-5.528h-5.996v6.742h1.682v-.794h3.862c.187.483.358 1.059.405 1.448 1.339 0 2.242-.046 2.849-.358.623-.296.826-.841.826-1.837v-11.756h-6.104z" style="fill:#fff;fill-rule:nonzero" transform="translate(-1171.55 -575.004)scale(8.29568)"/><path d="M263.615 242.62h-2.398v-.825h2.398zm0 2.134h-2.398v-.887h2.398zm1.729-4.298h-5.964v13.952h1.838v-8.331h4.126z" style="fill:#fff;fill-rule:nonzero" transform="translate(-1171.55 -575.012)scale(8.29568)"/><path d="M0 209.338c-57.714 0-104.667-46.955-104.667-104.671C-104.667 46.956-57.714.004 0 .004c57.71 0 104.66 46.952 104.66 104.663 0 57.716-46.95 104.671-104.66 104.671m106.332-104.671C106.332 46.035 58.632-1.666 0-1.666c-58.634 0-106.336 47.701-106.336 106.333 0 58.634 47.702 106.337 106.336 106.337 58.632 0 106.332-47.703 106.332-106.337" style="fill:#fff;fill-rule:nonzero" transform="translate(1180.002 308.727)scale(8.29568)"/><path d="M0 280.101c-77.229 0-140.058-62.827-140.058-140.052C-140.058 62.822-77.229-.007 0-.007c77.227 0 140.055 62.829 140.055 140.056 0 77.225-62.828 140.052-140.055 140.052M0-1.682c-78.153 0-141.734 63.58-141.734 141.731 0 78.152 63.581 141.734 141.734 141.734 78.15 0 141.73-63.582 141.73-141.734C141.73 61.898 78.15-1.682 0-1.682" style="fill:#fff;fill-rule:nonzero" transform="translate(1180.002 16.877)scale(8.29568)"/><path d="m0 17.054-9.213-3.144 3.324-9.741 9.214 3.145 1.213-3.558-21.258-7.255-1.214 3.557 8.836 3.016-3.325 9.74-8.836-3.015-1.194 3.499 21.259 7.255z" style="fill:#fff;fill-rule:nonzero" transform="translate(291.783 781.008)scale(8.29568)"/><path d="M0-7.751c1.057-1.819 2.626-2.938 4.539-3.235a7 7 0 0 1 1.047-.079c1.497 0 3.104.463 4.625 1.347C13.744-7.665 16.61-3.906 14.057.488c-1.114 1.918-2.701 3.009-4.718 3.242-1.805.211-3.912-.322-5.931-1.495C1.351 1.04-.057-.527-.667-2.297c-.609-1.769-.378-3.656.667-5.454M1.616 5.683c1.983 1.152 4.241 1.844 6.478 1.844 3.335 0 6.62-1.541 8.858-5.393 1.637-2.816 2.015-5.77 1.093-8.541-.864-2.597-2.879-4.921-5.672-6.544-3.098-1.8-6.218-2.327-9.025-1.525-2.583.739-4.763 2.531-6.305 5.184-3.15 5.422-1.27 11.58 4.573 14.975" style="fill:#fff;fill-rule:nonzero" transform="translate(242.996 698.55)scale(8.29568)"/><path d="m0 22.533-11.889-10.487 18.848 2.597 2.296-2.602-16.847-14.86-2.405 2.727 11.915 10.51-18.916-2.574-2.335 2.648 16.847 14.86z" style="fill:#fff;fill-rule:nonzero" transform="translate(460.725 411.37)scale(8.29568)"/><path d="M0 23.536a9 9 0 0 0 2.033.233c2.11 0 4.192-.753 6.112-2.226 2.175-1.669 3.555-3.849 3.844-6.005l1.401 1.634 2.503-1.92-7.319-9.541-8.083 6.201 2.026 2.643 5.398-4.141c1.71 3.066 1.155 6.184-1.5 8.221-3.947 3.028-7.967.684-10.212-2.242-1.465-1.909-2.27-3.838-2.331-5.579-.067-1.975.814-3.679 2.62-5.065 2.555-1.959 5.293-1.915 7.514.121l.28.257 2.859-2.491-.34-.322C3.232-.073-1.33-.233-5.396 2.885c-5.318 4.079-5.909 10.149-1.542 15.841 1.96 2.555 4.359 4.218 6.938 4.81" style="fill:#fff;fill-rule:nonzero" transform="translate(553.362 267.19)scale(8.29568)"/><path d="M-18.334 7.035H4.13v3.728h-22.464z" style="fill:#fff" transform="scale(-8.29568 8.29568)rotate(-60.826 -23.034 86.368)"/><path d="m0 25.145-2.723-6.925 1.752-3.88 11.237 6.769 4.602-1.809L.562 10.95 5.995-1.353 1.306.491l-5.728 13.405-3.798-9.66-3.442 1.353 8.221 20.909z" style="fill:#fff;fill-rule:nonzero" transform="translate(809.624 121.618)scale(8.29568)"/><path d="M0 18.631c1.398 1.655 3.485 2.49 6.219 2.49q.811 0 1.701-.099c3.786-.42 6.32-2.318 7.135-5.341.405-1.464.248-3.318.068-4.94L13.656-2.49l-3.766.417 1.423 12.836c.35 3.157.32 6.282-4.118 6.773-4.38.489-5.057-2.243-5.429-5.591L.33-1.013l-3.767.418 1.387 12.502c.243 2.199.547 4.934 2.05 6.724" style="fill:#fff;fill-rule:nonzero" transform="translate(1015.258 86.27)scale(8.29568)"/><path d="M0-10.032 9.22 6.614l3.46.277 1.796-22.394-3.625-.291L9.58.045.301-16.64l-3.519-.283-1.797 22.395 3.747.301z" style="fill:#fff;fill-rule:nonzero" transform="translate(1222.318 204.74)scale(8.29568)"/><path d="M-6.135-21.788h3.731V.677h-3.731z" style="fill:#fff" transform="scale(-8.29568 8.29568)rotate(-12.594 61.86 751.609)"/><path d="M0 25.132 15.622 6.916l-3.764-1.373L.525 19.238.482 1.393-3.338 0l.282 24.018z" style="fill:#fff;fill-rule:nonzero" transform="translate(1507.125 104.662)scale(8.29568)"/><path d="m0 27.483 1.702-2.969-10.706-6.136 3.155-5.505 9.803 5.618 1.702-2.969-9.803-5.619 2.85-4.974L9.09 10.882l1.763-3.075L-2.769 0l-11.172 19.493z" style="fill:#fff;fill-rule:nonzero" transform="translate(1699.054 182.55)scale(8.29568)"/><path d="m0-19.349 3.086 2.615c2.212 1.874 3.88 3.618 1.883 5.974-1.562 1.845-3.283 1.798-5.577-.147l-3.81-3.229zM-12.331-4.798l5.799-6.843 3.133 2.654c.478.405 1.747 1.48 2.104 2.214.652 1.392-.188 2.646-1.078 3.974-.142.213-.283.423-.414.631-.836 1.313-1.272 2.167-1.646 3.759l-.059.253 3.698 3.134-.092-1.031C-1.019 2.444-.055.869.878-.654 2.027-2.53 3.215-4.47 2.358-6.352c1.98.503 4.071-.221 5.605-2.031 1.06-1.252 1.615-2.507 1.693-3.833.189-2.825-1.521-4.685-3.396-6.275l-6.888-5.836-14.523 17.138z" style="fill:#fff;fill-rule:nonzero" transform="translate(1847.812 486.885)scale(8.29568)"/><path d="M0 14.53c-.78.643-1.664.82-2.628.527-.851-.259-1.709-.874-2.415-1.731-2.136-2.59-2.079-4.755.182-7.021l.311-.312-2.816-2.614-.289.284c-3.464 3.393-3.506 7.525-.118 11.635 1.382 1.678 3.076 2.86 4.768 3.33a6.3 6.3 0 0 0 1.673.234c1.401 0 2.743-.505 3.947-1.497 3.876-3.195 2.224-7.067.758-10.502l-.336-.793c-1.219-2.894-1.435-3.542-.224-4.541.724-.595 1.515-.765 2.351-.505.735.228 1.502.794 2.16 1.592 1.755 2.129 1.725 3.983-.092 5.837l-.302.307 2.669 2.555.294-.267c.957-.87 1.604-1.885 2.038-3.191.784-2.336.086-4.782-2.134-7.477C7.606-2.278 3.775-4.332.183-1.373c-2.36 1.947-2.765 4.312-1.31 7.668l1.11 2.57C.838 10.822 1.807 13.04 0 14.53" style="fill:#fff;fill-rule:nonzero" transform="translate(1954.03 464.603)scale(8.29568)"/><path d="M-2.757 5.739h22.466v3.728H-2.757z" style="fill:#fff" transform="scale(8.29568 -8.29568)rotate(32.47 271.102 372.813)"/><path d="m0-4.332-17.061 8.313 1.647 3.379L1.646-.953l2.816 5.779L7.593 3.3.288-11.692l-3.13 1.526z" style="fill:#fff;fill-rule:nonzero" transform="translate(2144.955 727.974)scale(8.29568)"/><path d="m0 9.68 1.102 3.529 8.616-2.69 15.377 4.159-1.324-4.24-10.883-2.766 7.374-8.469-1.312-4.201L8.619 6.988z" style="fill:#fff;fill-rule:nonzero" transform="translate(2057.004 809.098)scale(8.29568)"/><path d="m0-8.613.048 3.001C.103-2.259-.107-.058-3.379-.004c-.833.02-2.005-.189-2.764-1.227-.606-.85-.634-2.541-.644-3.178l-.067-4.093zm-10.179 4.624c.037 2.29.283 4.875 2.743 6.582 1.141.783 2.537 1.195 4.044 1.195l.135-.001c2.074-.034 3.793-.715 4.972-1.97C2.926.528 3.547-1.358 3.51-3.635l-.143-8.766-22.263.362.061 3.732 8.583-.14z" style="fill:#fff;fill-rule:nonzero" transform="translate(220.017 1230.792)scale(8.29568)"/><path d="m0-13.935.723 3.938c.537 2.924.708 5.205-2.305 5.758-2.348.428-3.639-.682-4.178-3.613l-.892-4.862zM-6.348-2.488C-5.145-.861-3.089-.104-.777-.531c1.599-.293 2.812-.907 3.706-1.875 1.919-2.049 1.777-4.549 1.337-6.947L2.65-18.154l-21.901 4.019.663 3.611 8.742-1.604.734 3.998c.112.61.409 2.231.223 3.017-.375 1.473-1.805 1.907-3.32 2.366q-.365.11-.712.222c-1.466.483-2.338.865-3.623 1.85l-.207.158.869 4.736.583-.856c.84-1.234 2.567-1.835 4.238-2.417C-9.004.229-6.877-.511-6.348-2.488" style="fill:#fff;fill-rule:nonzero" transform="translate(229.939 1431.97)scale(8.29568)"/><path d="M0 7.275C-1.808 2.603 1.522-.6 5.241-2.04c1.271-.492 2.505-.739 3.656-.739.838 0 1.634.13 2.369.393 1.745.625 3.061 1.97 3.804 3.891.753 1.943.646 3.848-.307 5.51-.886 1.544-2.481 2.823-4.491 3.602C6.497 12.078 1.817 11.966 0 7.275M18.1.17C15.856-5.627 9.925-7.986 3.68-5.567.858-4.475-1.404-2.606-2.689-.305c-1.465 2.624-1.598 5.668-.383 8.802 1.165 3.012 3.217 5.133 5.932 6.136 1.134.419 2.368.628 3.652.628 1.596 0 3.27-.322 4.924-.963C17.846 11.816 20.462 6.27 18.1.17" style="fill:#fff;fill-rule:nonzero" transform="translate(162.329 1511.493)scale(8.29568)"/><path d="M0-5.182-7.417.346l-6.089-8.17 7.417-5.527-2.193-2.944-17.85 13.303 2.194 2.943 7.732-5.762 6.089 8.168-7.733 5.764 2.23 2.992L2.23-2.19z" style="fill:#fff;fill-rule:nonzero" transform="translate(458.037 1811.166)scale(8.29568)"/><path d="M0 16.543c-2.015.43-3.875-.122-5.541-1.636-3.707-3.369-2.163-7.723.519-10.675C-3.438 2.489-1.629 1.45.212 1.228a6 6 0 0 1 .733-.044c1.576 0 3.088.621 4.409 1.822 3.458 3.142 2.383 7.434-.215 10.295C3.578 15.017 1.753 16.17 0 16.543m7.827-.472c4.622-5.086 4.48-11.216-.361-15.615C2.868-3.723-3.492-3.181-7.996 1.775c-2.035 2.24-3.222 4.923-3.342 7.556-.136 3.001 1.107 5.783 3.594 8.043 2.096 1.905 4.495 2.892 6.995 2.892q.526 0 1.056-.058c2.696-.297 5.366-1.767 7.52-4.137" style="fill:#fff;fill-rule:nonzero" transform="translate(493.053 1862.69)scale(8.29568)"/><path d="M0-12.623-13.9-1.644l2.821-17.499-3.728-2.193-11.291 19.19 3.168 1.863.214-.372c.055-.096 4.739-8.227 7.383-12.774L-18.09 2.566l2.387 1.403 12.62-9.972a2868 2868 0 0 0-7.53 12.47l-.221.367 3.193 1.879L3.65-10.477z" style="fill:#fff;fill-rule:nonzero" transform="translate(755.893 2114.63)scale(8.29568)"/><path d="M-13.631-12.854H8.63v3.701h-22.261z" style="fill:#fff" transform="scale(-8.29568 8.29568)rotate(67.759 -248.262 53.304)"/><path d="M0 11.54-6.046-6.128l-.074-.215-3.388-.893-5.676 21.526 3.608.951L-7.574.064l6.07 17.834 3.329.878L7.502-2.751l-3.491-.92z" style="fill:#fff;fill-rule:nonzero" transform="translate(951.05 2121.375)scale(8.29568)"/><path d="M0 4.377c-.108 1.405-.286 3.002-1.028 4.17-.81 1.275-2.195 1.818-4.227 1.662-4.362-.336-4.505-3.116-4.249-6.441l.992-12.884-3.752-.289-.956 12.43c-.169 2.186-.378 4.907.756 6.928 1.266 2.242 3.713 3.517 7.272 3.791q.492.038.962.038c3.283 0 5.74-1.374 6.973-3.924.666-1.353.855-3.187.979-4.799L4.734-8.097.982-8.386z" style="fill:#fff;fill-rule:nonzero" transform="translate(1138.988 2180.357)scale(8.29568)"/><path d="M0-23.639-4.408-6.486l-8.354-15.628-4.295.512L-14.415.503l3.649-.436-.055-.425c-.014-.111-1.213-9.416-1.864-14.634L-5.191-.599l2.749-.329 4-15.576c.529 5.11 1.55 14.368 1.562 14.479l.047.426 3.679-.438-2.642-22.105z" style="fill:#fff;fill-rule:nonzero" transform="translate(1344.737 2293.676)scale(8.29568)"/><path d="m0 13.252-3.204 1.298-2.504-6.185 3.963-1.605c2.191-.887 4.624-1.594 5.779 1.259S2.557 12.216 0 13.252M-9.055.1l3.991-1.617c.883-.358 2.018-.755 2.964-.653.918.099 1.55.646 1.986 1.724.395.976.274 1.87-.358 2.658-.514.64-2.451 1.425-3.087 1.682L-6.96 5.272zM2.576 3.066c1.159-1.404 1.369-3.27.554-5.283C2.247-4.396.764-5.57-1.279-5.708c-1.698-.112-3.464.493-4.97 1.103l-7.506 3.039 8.356 20.638 6.973-2.824c2.524-1.022 8.435-3.415 5.964-9.517-.945-2.335-2.718-3.625-4.962-3.665" style="fill:#fff;fill-rule:nonzero" transform="translate(1581.936 2080.444)scale(8.29568)"/><path d="m0 17.454-3.26-5.365 9.563-5.813-1.765-2.903-9.563 5.813L-7.97 4.34 2.163-1.819.335-4.826l-13.296 8.081L-1.398 22.28l13.607-8.271-1.765-2.904z" style="fill:#fff;fill-rule:nonzero" transform="translate(1718.209 1979.941)scale(8.29568)"/><path d="m0-23.588 10.351 11.845-18.241-4.95-2.639 2.305L4.121 2.376l2.81-2.455-10.329-11.82 18.173 4.965L17.368-9.2 2.718-25.964z" style="fill:#fff;fill-rule:nonzero" transform="translate(1824.178 2048.024)scale(8.29568)"/><path d="m0 16.088-4.87-3.961 7.061-8.682-2.636-2.144-7.061 8.683-4.4-3.578 7.482-9.2-2.73-2.221-9.817 12.071L.301 21.103 10.347 8.749 7.711 6.605z" style="fill:#fff;fill-rule:nonzero" transform="translate(2005.712 1753.635)scale(8.29568)"/><path d="m0-9.539-2.908-1.699-4.989 8.536-4.895-2.861 5.463-9.349-3.013-1.759-7.346 12.57L1.534 7.132 3.417 3.91l-8.405-4.913z" style="fill:#fff;fill-rule:nonzero" transform="translate(2105.07 1726.475)scale(8.29568)"/><path d="M-.189-4.606h22.266v3.702H-.189z" style="fill:#fff" transform="matrix(7.6037 3.31695 3.31695 -7.6037 2044.56 1529.984)"/><path d="m0-16.034-.404-.202-1.436 3.362.309.193c2.62 1.641 3.703 4.258 2.897 7.001C.042-1.174-4.353-.723-8.025-1.802c-1.843-.542-7.726-2.754-6.043-8.478.817-2.779 2.967-4.182 6.031-3.959l.376.028.708-3.65-.44-.065c-4.783-.7-8.504 1.819-9.953 6.745-.931 3.168-.571 6.074 1.041 8.405 1.47 2.125 3.944 3.748 7.155 4.692 1.544.454 3 .676 4.351.676 4.568 0 7.928-2.54 9.313-7.251 1.44-4.898-.29-9.257-4.514-11.375" style="fill:#fff;fill-rule:nonzero" transform="translate(2217.235 1526.94)scale(8.29568)"/><path d="M.153-1.772h22.266V1.93H.153z" style="fill:#fff" transform="scale(8.29568 -8.29568)rotate(-9.038 -885.331 -1679.942)"/><path d="M0 .428C-.054 2.624-.912 4.326-2.552 5.49c-1.467 1.041-3.544 1.581-5.862 1.527-2.354-.058-4.323-.747-5.695-1.993s-2.07-2.993-2.019-5.052c.051-2.082.88-3.801 2.398-4.97 1.351-1.039 3.208-1.604 5.254-1.604q.137 0 .275.003C-4.156-6.5.123-4.602 0 .428M-8.268-10.45c-6.644 0-11.013 4.082-11.17 10.492-.078 3.17 1.004 5.886 3.129 7.852 1.993 1.844 4.828 2.902 7.982 2.979q.179.005.356.005c5.544 0 11.1-3.181 11.277-10.399.08-3.227-1.001-5.974-3.123-7.942-1.988-1.845-4.846-2.903-8.047-2.982a18 18 0 0 0-.404-.005" style="fill:#fff;fill-rule:nonzero" transform="translate(2270.261 1203.375)scale(8.29568)"/><path d="M0-11.805c-.277 1.422-1.238 2.113-2.939 2.113h-.142v1.457h2.704v8.35h1.899V-11.92h-1.5z" style="fill:#fff;fill-rule:nonzero" transform="translate(1037.216 1891.924)scale(8.29568)"/><path d="M0 .601c-1.297 0-2.239-.97-2.239-2.307 0-1.526.878-2.511 2.239-2.511 1.366 0 2.358 1.049 2.358 2.494C2.358-.354 1.388.601 0 .601m2.83-5.51c-.783-.664-1.692-.987-2.779-.987-2.457 0-4.173 1.702-4.173 4.139 0 2.425 1.575 4.054 3.918 4.054 1.211 0 2.238-.464 2.939-1.317-.073 1.213-.488 3.89-2.752 3.89-1.169 0-1.904-.685-2.019-1.878l-.013-.139-1.881.14.013.144c.195 2.072 1.598 3.36 3.662 3.36 1.799 0 4.819-.825 4.819-6.35 0-2.392-.567-4.046-1.734-5.056" style="fill:#fff;fill-rule:nonzero" transform="translate(1116.54 1839.836)scale(8.29568)"/><path d="M0 3.322h-3.194L.087-1.374C.056-.059.011 2.675 0 3.322m1.863-7.687H.391l-5.547 7.527v1.821h5.154v2.704h1.865V4.983h1.768V3.322H1.863z" style="fill:#fff;fill-rule:nonzero" transform="translate(1217.25 1829.118)scale(8.29568)"/><path d="M0 9.088c-1.389 0-2.358-1.019-2.358-2.477 0-1.357.999-2.342 2.375-2.342 1.403 0 2.24.901 2.24 2.41 0 1.418-.928 2.409-2.257 2.409m.238-6.531c-1.223 0-2.293.489-2.959 1.332C-2.527 1.285-1.59-.034.068-.034c1.134 0 1.938.754 2.002 1.874l.008.142 1.838-.12-.017-.149C3.653-.399 2.233-1.661.102-1.661c-1.094 0-4.666.453-4.666 6.282 0 3.952 1.609 6.128 4.53 6.128 2.486 0 4.155-1.649 4.155-4.104 0-2.369-1.633-4.088-3.883-4.088" style="fill:#fff;fill-rule:nonzero" transform="translate(1304.188 1804.563)scale(8.29568)"/><path d="M3.402-3.402A3.4 3.4 0 0 1 6.803 0 3.401 3.401 0 1 1 0 0a3.4 3.4 0 0 1 3.402-3.402" style="fill:#fff;fill-rule:nonzero" transform="matrix(0 8.29568 8.29568 0 164.12 999.973)"/><path d="M-3.402-3.402a3.402 3.402 0 1 1 0 6.803 3.402 3.402 0 0 1 0-6.803" style="fill:#fff;fill-rule:nonzero" transform="matrix(0 -8.29568 -8.29568 0 2186.433 999.973)"/></svg>